<svg version="1.1" xmlns="http://www.w3.org/2000/svg" xmlns:xlink="http://www.w3.org/1999/xlink" x="0px" y="0px" viewBox="0 0 1000 1000" enable-background="new 0 0 1000 1000" xml:space="preserve">
<metadata> Svg Vector Icons : http://www.onlinewebfonts.com/icon </metadata>
<g>
  <g transform="translate(0.000000,511.000000) scale(0.100000,-0.100000)">
    <path fill="#FFF" d="M1878.6,4426c-341.6-63.6-638.4-221.4-897.5-480.6c-212-212-336.9-412.3-428.7-692.6c-51.8-157.8-61.3-221.4-58.9-499.4c0-280.3,7.1-339.2,61.2-506.5c89.5-270.9,214.4-468.8,428.8-683.2c214.4-214.4,412.3-339.2,683.2-428.8c167.3-54.2,226.2-61.2,506.5-61.2c280.3,0,339.2,7.1,506.5,61.2c103.7,35.3,256.8,101.3,341.6,150.8c195.5,115.4,504.1,424,619.6,619.6c96.6,167.3,205,478.2,205,591.3c0,37.7,11.8,68.3,23.6,68.3c14.1,0,23.6-30.6,23.6-68.3c0-113.1,108.4-424,205-591.3c115.4-195.5,424-504.1,619.6-619.6c84.8-49.5,237.9-115.4,341.6-150.8c167.2-54.2,226.1-61.2,506.5-61.2c280.3,0,339.2,7.1,506.5,61.2c270.9,89.5,468.8,214.4,683.2,428.8c214.4,214.4,339.2,412.3,428.8,683.2c54.2,167.3,61.2,226.2,61.2,506.5c0,280.3-7.1,339.2-61.2,506.5c-89.5,270.9-214.4,468.8-428.8,683.2c-214.4,214.4-412.3,339.2-683.2,428.8c-167.2,54.2-226.1,61.2-506.5,61.2c-278,2.4-341.6-7.1-499.4-58.9c-98.9-33-252.1-98.9-341.6-148.4c-212-117.8-513.6-419.3-631.3-631.3c-98.9-179-200.2-473.5-200.2-581.9c0-40-9.4-70.7-23.6-70.7c-11.8,0-23.6,30.6-23.6,68.3c0,113.1-108.4,424-205,591.3c-115.4,195.5-424,504.1-619.6,619.6c-237.9,136.6-485.3,207.3-777.4,216.7C2107.1,4442.5,1944.6,4437.8,1878.6,4426z"/>
    <path fill="#FFF" d="M158.9,621.5L100,564.9v-2334.6v-2334.6l58.9-56.5l56.5-58.9h3460.6c3373.5,0,3463,0,3517.2,44.8c56.6,44.7,56.6,47.1,68.3,683.2l11.8,638.4l1194.4-683.2c720.9-412.3,1217.9-683.2,1255.6-683.2c33,0,87.2,25.9,117.8,58.9l58.9,56.5v2334.6V564.9l-58.9,56.5c-33,35.3-82.5,58.9-122.5,58.9c-42.4,0-492.3-245-1255.6-683.2L7273.3-683.6l-11.8,638.4c-11.8,633.7-11.8,636.1-68.3,680.8c-54.2,44.8-143.7,44.8-3517.2,44.8H215.4L158.9,621.5z"/>
  </g>
</g>
</svg>