<svg version="1.1" id="Layer_1" x="0px" y="0px" viewBox="0 0 50 50" enable-background="new 0 0 50 50" xmlns="http://www.w3.org/2000/svg">
  <path fill="#FFF" d="M 0.718 49.135 C 1.016 49.433 1.407 49.582 1.799 49.582 C 2.19 49.582 2.581 49.432 2.881 49.134 L 24.723 27.266 L 46.565 49.134 C 46.863 49.433 47.255 49.582 47.647 49.582 C 48.039 49.582 48.43 49.432 48.728 49.135 C 49.325 48.539 49.325 47.572 48.729 46.974 L 26.908 25.129 L 48.728 3.285 C 49.324 2.688 49.324 1.72 48.726 1.124 C 48.127 0.527 47.161 0.527 46.565 1.126 L 24.721 22.994 L 2.879 1.126 C 2.282 0.528 1.314 0.528 0.718 1.124 C 0.121 1.72 0.121 2.688 0.717 3.285 L 22.534 25.129 L 0.717 46.974 C 0.121 47.57 0.121 48.539 0.718 49.135 Z" style=""/>
</svg>