<svg xmlns="http://www.w3.org/2000/svg" viewBox="0 0 44 44">
  <g id="Layer_2" data-name="Layer 2">
    <path style="fill: #FFF;" d="M34,18a4,4,0,1,0,4,4A4,4,0,0,0,34,18Zm0,6a2,2,0,1,1,2-2A2,2,0,0,1,34,24ZM29,34a1,1,0,1,0,1,1A1,1,0,0,0,29,34ZM19,28a3,3,0,1,0,3,3A3,3,0,0,0,19,28Zm0,4a1,1,0,1,1,1-1A1,1,0,0,1,19,32Zm-9-8a2,2,0,1,0,2,2A2,2,0,0,0,10,24Zm15-2a1,1,0,1,0,1,1A1,1,0,0,0,25,22ZM16,8a6,6,0,1,0,6,6A6,6,0,0,0,16,8Zm0,10a4,4,0,1,1,4-4A4,4,0,0,1,16,18ZM22,0A22,22,0,1,0,44,22,22,22,0,0,0,22,0Zm0,42A20,20,0,1,1,42,22,20,20,0,0,1,22,42Z" />
  </g>
</svg>